<svg width="30" height="30" viewBox="520 287 400 380" fill="none" xmlns="http://www.w3.org/2000/svg"><path fill="#f86001" d="M 886.617188 521.003906 C 896.097656 470.058594 907.101562 419.394531 916.6875 368.480469 C 919.554688 353.125 910.886719 333.488281 894.117188 331.046875 C 886.71875 329 878.050781 336.886719 881.09375 344.421875 C 882.046875 350.753906 889.265625 351.464844 894.117188 353.09375 C 895.601562 357.199219 898.324219 361.441406 896.589844 366.003906 C 895.523438 371.46875 894.410156 376.929688 893.332031 382.394531 L 646.398438 382.394531 C 641.515625 382.394531 637.550781 386.351562 637.550781 391.238281 C 637.550781 396.125 641.515625 400.082031 646.398438 400.082031 L 889.816406 400.082031 C 883.210938 433.222656 876.53125 466.355469 870.023438 499.527344 C 868.574219 506.429688 867.546875 513.539062 864.644531 520.050781 C 859.441406 522.070312 853.636719 521.042969 848.226562 521.324219 C 784.011719 521.148438 719.792969 521.292969 655.617188 521.253906 C 639.308594 451.695312 623.210938 382.101562 606.863281 312.542969 C 604.773438 299.417969 593.558594 287.320312 579.621094 287.808594 C 562.957031 287.886719 546.253906 287.105469 529.628906 288.273438 C 520.464844 291.421875 520.464844 304.972656 529.453125 308.40625 C 547 310.070312 564.726562 307.945312 582.273438 309.429688 C 586.484375 311.480469 585.707031 317.320312 587.332031 321.140625 C 606.511719 403.824219 625.859375 486.472656 645.390625 569.121094 C 647.902344 582.601562 660.746094 593.359375 674.6875 592.011719 C 743.253906 591.910156 811.820312 592.261719 880.351562 591.835938 C 893.4375 592.261719 893.511719 570.640625 880.421875 570.960938 C 818.929688 570.539062 757.40625 570.855469 695.914062 570.785156 C 686.679688 570.570312 677.304688 571.632812 668.179688 569.792969 C 664.109375 561.195312 663.015625 551.574219 660.574219 542.480469 C 726.664062 542.480469 792.753906 542.515625 858.84375 542.480469 C 871.6875 543.578125 884.703125 533.847656 886.617188 521.003906 Z M 886.617188 521.003906 " fill-opacity="1" fill-rule="nonzero"/><path fill="#f86001" d="M 682.257812 599.832031 C 670.15625 602.203125 660.109375 612.289062 657.773438 624.386719 C 653.8125 641.050781 665.699219 659.234375 682.613281 662.101562 C 700.125 666.136719 718.914062 652.617188 720.398438 634.679688 C 723.722656 613.914062 702.636719 594.632812 682.257812 599.832031 Z M 697.613281 636.734375 C 694.21875 642.324219 685.582031 643.417969 681.300781 638.222656 C 675.425781 633.019531 678.644531 622.621094 685.96875 620.78125 C 694.675781 617.453125 703.769531 629.410156 697.613281 636.734375 Z M 697.613281 636.734375 " fill-opacity="1" fill-rule="nonzero"/><path fill="#f86001" d="M 838.25 599.761719 C 815.078125 603.300781 804.496094 634.683594 820.417969 651.703125 C 834.785156 669.886719 867.300781 664.261719 874.375 642.042969 C 883.710938 619.925781 861.5625 593.886719 838.25 599.761719 Z M 850.316406 639.707031 C 839.453125 648.160156 826.789062 628.875 838.746094 622.160156 C 849.609375 613.667969 862.34375 632.980469 850.316406 639.707031 Z M 850.316406 639.707031 " fill-opacity="1" fill-rule="nonzero"/></svg>